HIERARCHY
ROOT Hips
{
	OFFSET 0.000000 0.000000 0.000000
	CHANNELS 6 Xposition Yposition Zposition Xrotation Yrotation Zrotation
	JOINT LeftUpLeg_virtual
	{
		OFFSET 0.000000 0.000000 0.000000
		CHANNELS 3 Xrotation Yrotation Zrotation
		JOINT LeftUpLeg
		{
			OFFSET 13.026900 -6.336304 -1.092800
			CHANNELS 3 Xrotation Yrotation Zrotation
			JOINT LeftLeg
			{
				OFFSET 0.524474 -46.096886 9.782700
				CHANNELS 3 Xrotation Yrotation Zrotation
				JOINT LeftFoot
				{
					OFFSET -0.524474 -53.427422 -12.948200
					CHANNELS 3 Xrotation Yrotation Zrotation
					JOINT LeftToeBase
					{
						OFFSET 0.192200 -14.009700 16.364100
						CHANNELS 3 Xrotation Yrotation Zrotation
						JOINT LeftToe_End
						{
							OFFSET -1.784700 -0.561700 9.474800
							CHANNELS 3 Xrotation Yrotation Zrotation
							End Site
							{
								OFFSET 0 0 0
							}
						}
					}
				}
			}
		}
	}
	JOINT RightUpLeg_virtual
	{
		OFFSET 0.000000 0.000000 0.000000
		CHANNELS 3 Xrotation Yrotation Zrotation
		JOINT RightUpLeg
		{
			OFFSET -12.883000 -6.336304 -1.092800
			CHANNELS 3 Xrotation Yrotation Zrotation
			JOINT RightLeg
			{
				OFFSET -0.524587 -46.096825 9.782800
				CHANNELS 3 Xrotation Yrotation Zrotation
				JOINT RightFoot
				{
					OFFSET 0.524587 -53.427383 -12.948300
					CHANNELS 3 Xrotation Yrotation Zrotation
					JOINT RightToeBase
					{
						OFFSET -0.192200 -14.009700 16.364100
						CHANNELS 3 Xrotation Yrotation Zrotation
						JOINT RightToe_End
						{
							OFFSET 1.784700 -0.561700 9.474800
							CHANNELS 3 Xrotation Yrotation Zrotation
							End Site
							{
								OFFSET 0 0 0
							}
						}
					}
				}
			}
		}
	}
	JOINT Spine_virtual
	{
		OFFSET 0.000000 0.000000 0.000000
		CHANNELS 3 Xrotation Yrotation Zrotation
		JOINT Spine
		{
			OFFSET 0.072000 7.257294 -0.789700
			CHANNELS 3 Xrotation Yrotation Zrotation
			JOINT Spine1
			{
				OFFSET 0.000000 12.508769 -0.658067
				CHANNELS 3 Xrotation Yrotation Zrotation
				JOINT Spine1_split
				{
					OFFSET 0.000000 12.508769 -0.658067
					CHANNELS 3 Xrotation Yrotation Zrotation
					JOINT Spine2
					{
						OFFSET 0.000000 12.508769 -0.658067
						CHANNELS 3 Xrotation Yrotation Zrotation
						JOINT Neck_virtual
						{
							OFFSET 0.000000 0.000000 0.000000
							CHANNELS 3 Xrotation Yrotation Zrotation
							JOINT Neck
							{
								OFFSET 0.000000 14.033295 7.520400
								CHANNELS 3 Xrotation Yrotation Zrotation
								JOINT Head
								{
									OFFSET 0.000000 8.198502 5.703100
									CHANNELS 3 Xrotation Yrotation Zrotation
									JOINT HeadTop_End
									{
										OFFSET 0.000000 17.760803 13.332701
										CHANNELS 3 Xrotation Yrotation Zrotation
										End Site
										{
											OFFSET 0 0 0
										}
									}
								}
							}
						}
						JOINT LeftShoulder_virtual
						{
							OFFSET 0.000000 0.000000 0.000000
							CHANNELS 3 Xrotation Yrotation Zrotation
							JOINT LeftShoulder
							{
								OFFSET 6.292450 5.785301 -0.669000
								CHANNELS 3 Xrotation Yrotation Zrotation
								JOINT LeftShoulder_split
								{
									OFFSET 6.292450 5.785301 -0.669000
									CHANNELS 3 Xrotation Yrotation Zrotation
									JOINT LeftArm
									{
										OFFSET 13.907140 -6.093903 1.965100
										CHANNELS 3 Xrotation Yrotation Zrotation
										JOINT LeftForeArm
										{
											OFFSET 34.140198 0.000000 0.000000
											CHANNELS 3 Xrotation Yrotation Zrotation
											JOINT LeftHand
											{
												OFFSET 40.960209 0.000000 0.000000
												CHANNELS 3 Xrotation Yrotation Zrotation
												End Site
												{
													OFFSET 0 0 0
												}
											}
										}
									}
								}
							}
						}
						JOINT RightShoulder_virtual
						{
							OFFSET 0.000000 0.000000 0.000000
							CHANNELS 3 Xrotation Yrotation Zrotation
							JOINT RightShoulder
							{
								OFFSET -6.292450 5.785301 -0.669000
								CHANNELS 3 Xrotation Yrotation Zrotation
								JOINT RightShoulder_split
								{
									OFFSET -6.292450 5.785301 -0.669000
									CHANNELS 3 Xrotation Yrotation Zrotation
									JOINT RightArm
									{
										OFFSET -13.907140 -6.093903 1.965100
										CHANNELS 3 Xrotation Yrotation Zrotation
										JOINT RightForeArm
										{
											OFFSET -34.140198 0.000000 0.000000
											CHANNELS 3 Xrotation Yrotation Zrotation
											JOINT RightHand
											{
												OFFSET -40.960209 0.000000 0.000000
												CHANNELS 3 Xrotation Yrotation Zrotation
												End Site
												{
													OFFSET 0 0 0
												}
											}
										}
									}
								}
							}
						}
					}
				}
			}
		}
	}
}
MOTION
Frames: 8
Frame Time: 0.03333333
2.771291 108.402390 2.861977 0.000000 0.000000 0.000000 -9.913532 12.320459 -3.111765 -37.904265 25.207896 15.346105 39.181455 4.818871 5.075110 5.889329 -16.146625 -2.128570 -5.903305 1.847350 0.299578 0.000000 0.000000 0.000000 -9.581065 13.933127 -3.326421 -18.699987 -23.002947 -2.339082 26.887251 5.790179 -1.478625 0.755776 5.278685 2.413101 0.606950 -3.326677 -16.620439 0.000000 0.000000 0.000000 -9.527352 16.185322 -4.647183 5.431754 0.131789 5.041930 5.389693 0.982275 0.314044 0.087398 -0.215854 -0.026452 0.000000 0.000000 0.000000 5.021488 4.232944 0.590438 19.239193 8.134333 -0.516686 8.417508 -50.543079 -5.691916 0.000000 0.000000 0.000000 4.554990 2.118905 -1.218981 2.621849 5.764850 -9.946980 3.799282 -1.924577 -0.686496 63.171484 -65.799201 -7.091109 4.441238 -19.603486 9.592293 0.000000 0.000000 0.000000 5.922074 2.687355 0.356241 -3.429994 -8.299986 6.924873 6.901126 -1.615691 0.292534 11.089145 41.569078 58.921426 -1.324710 13.957587 -7.064979 0.000000 0.000000 0.000000 
2.767952 108.411324 2.873310 0.000000 0.000000 0.000000 -9.904793 12.328788 -3.113857 -37.912287 25.215598 15.351052 39.183231 4.813142 5.079283 5.904597 -16.160752 -2.139677 -5.905904 1.847369 0.306397 0.000000 0.000000 0.000000 -9.570838 13.943483 -3.326638 -18.692124 -22.994703 -2.341715 26.879199 5.798792 -1.478847 0.762173 5.286522 2.413234 0.603256 -3.328972 -16.613633 0.000000 0.000000 0.000000 -9.507014 16.200135 -4.652408 5.424838 0.134864 5.045489 5.399230 0.984110 0.308132 0.086868 -0.218146 -0.027165 0.000000 0.000000 0.000000 5.023839 4.232477 0.587582 19.247072 8.134983 -0.531697 8.455333 -50.554957 -5.662306 0.000000 0.000000 0.000000 4.556896 2.119514 -1.225215 2.619888 5.763236 -9.946170 3.772267 -1.895203 -0.703762 63.154975 -65.760460 -7.088745 4.419432 -19.605814 9.573020 0.000000 0.000000 0.000000 5.922428 2.686599 0.352386 -3.431020 -8.314187 6.917216 6.897645 -1.613224 0.297248 11.086644 41.599305 58.927478 -1.333000 13.978259 -7.068154 0.000000 0.000000 0.000000 
2.765363 108.422142 2.883926 0.000000 0.000000 0.000000 -9.895774 12.357323 -3.114673 -37.908598 25.201499 15.333143 39.168345 4.817633 5.085700 5.914643 -16.175322 -2.134584 -5.907929 1.850097 0.309153 0.000000 0.000000 0.000000 -9.558351 13.972714 -3.326857 -18.668534 -23.008011 -2.343507 26.865776 5.808293 -1.478532 0.746869 5.292005 2.394300 0.608717 -3.329450 -16.604724 0.000000 0.000000 0.000000 -9.492745 16.236437 -4.655813 5.425283 0.134514 5.055739 5.408200 0.983843 0.302038 0.086320 -0.219607 -0.027528 0.000000 0.000000 0.000000 5.028857 4.228953 0.582634 19.239736 8.131404 -0.549485 8.489323 -50.585863 -5.632081 0.000000 0.000000 0.000000 4.555920 2.117319 -1.231837 2.616111 5.764306 -9.947367 3.744642 -1.888827 -0.724139 62.963252 -65.729745 -7.235832 4.389883 -19.550185 9.541291 0.000000 0.000000 0.000000 5.922361 2.683680 0.348410 -3.432638 -8.328839 6.891670 6.891176 -1.608131 0.303994 11.071743 41.648294 58.946964 -1.348788 13.991007 -7.074225 0.000000 0.000000 0.000000 
2.765385 108.430145 2.890942 0.000000 0.000000 0.000000 -9.889750 12.404486 -3.114162 -37.896051 25.173600 15.296948 39.141635 4.837039 5.091962 5.912791 -16.184272 -2.109237 -5.895118 1.855954 0.302779 0.000000 0.000000 0.000000 -9.548198 14.021501 -3.327412 -18.631371 -23.044888 -2.344595 26.849767 5.816639 -1.476983 0.712603 5.294049 2.359281 0.618636 -3.327733 -16.597317 0.000000 0.000000 0.000000 -9.489926 16.290122 -4.656893 5.433065 0.129714 5.072244 5.416281 0.980528 0.297855 0.085555 -0.219560 -0.027990 0.000000 0.000000 0.000000 5.037101 4.222391 0.577802 19.218921 8.124201 -0.570084 8.517380 -50.636034 -5.603856 0.000000 0.000000 0.000000 4.552336 2.111962 -1.236995 2.610312 5.767790 -9.952428 3.728822 -1.902071 -0.737729 62.611005 -65.714281 -7.527947 4.358158 -19.452213 9.502946 0.000000 0.000000 0.000000 5.921707 2.677908 0.345928 -3.434495 -8.343230 6.851176 6.889078 -1.593700 0.314352 11.052563 41.710978 58.973732 -1.371224 13.995412 -7.082279 0.000000 0.000000 0.000000 
2.768894 108.434113 2.897690 0.000000 0.000000 0.000000 -9.887132 12.461418 -3.112056 -37.882866 25.139051 15.251317 39.113143 4.865090 5.097082 5.904448 -16.190009 -2.073717 -5.867141 1.864675 0.288692 0.000000 0.000000 0.000000 -9.541307 14.088931 -3.327719 -18.584572 -23.103818 -2.347570 26.839642 5.822616 -1.473257 0.666498 5.293783 2.317748 0.625215 -3.322301 -16.595652 0.000000 0.000000 0.000000 -9.498112 16.359283 -4.656474 5.447784 0.119777 5.094127 5.423665 0.973661 0.296988 0.085289 -0.218178 -0.028009 0.000000 0.000000 0.000000 5.048555 4.213451 0.575107 19.188100 8.113612 -0.594417 8.537088 -50.704350 -5.578932 0.000000 0.000000 0.000000 4.547432 2.103206 -1.239144 2.602661 5.775213 -9.960748 3.729171 -1.920674 -0.730126 62.115421 -65.719247 -7.954252 4.329620 -19.327591 9.463504 0.000000 0.000000 0.000000 5.919651 2.668813 0.345989 -3.435654 -8.356630 6.798274 6.885693 -1.568576 0.331592 11.038558 41.782661 58.999188 -1.400572 13.989211 -7.090223 0.000000 0.000000 0.000000 
2.774749 108.433044 2.905369 0.000000 0.000000 0.000000 -9.887205 12.525641 -3.108630 -37.872631 25.103961 15.204097 39.093763 4.893048 5.101302 5.897980 -16.197782 -2.035273 -5.841120 1.873899 0.275890 0.000000 0.000000 0.000000 -9.537160 14.170669 -3.328250 -18.534056 -23.177817 -2.354102 26.837073 5.826449 -1.468030 0.616905 5.290885 2.279613 0.623419 -3.313388 -16.602790 0.000000 0.000000 0.000000 -9.513945 16.437817 -4.655404 5.466924 0.104717 5.119895 5.430249 0.963069 0.300182 0.085933 -0.216570 -0.028491 0.000000 0.000000 0.000000 5.062744 4.202503 0.576260 19.150911 8.100446 -0.621799 8.554622 -50.784748 -5.551725 0.000000 0.000000 0.000000 4.543079 2.090909 -1.237442 2.593319 5.787417 -9.968995 3.746644 -1.939514 -0.705503 61.512861 -65.745174 -8.487172 4.305820 -19.192212 9.427302 0.000000 0.000000 0.000000 5.915559 2.656463 0.349407 -3.434692 -8.369365 6.735892 6.883106 -1.544687 0.357952 11.038568 41.861864 59.016004 -1.437315 13.971451 -7.096255 0.000000 0.000000 0.000000 
2.780970 108.429237 2.915768 0.000000 0.000000 0.000000 -9.890210 12.596220 -3.103641 -37.869011 25.074693 15.161473 39.088196 4.916218 5.105265 5.896821 -16.209449 -1.996780 -5.824400 1.881631 0.269181 0.000000 0.000000 0.000000 -9.535063 14.261502 -3.327537 -18.485950 -23.254996 -2.365006 26.839063 5.828904 -1.461072 0.569337 5.283741 2.258036 0.614343 -3.302352 -16.620087 0.000000 0.000000 0.000000 -9.534925 16.525037 -4.654261 5.488451 0.083852 5.148926 5.436032 0.949733 0.307321 0.085869 -0.215976 -0.029472 0.000000 0.000000 0.000000 5.077670 4.190728 0.582111 19.109896 8.086251 -0.650910 8.574184 -50.876757 -5.516944 0.000000 0.000000 0.000000 4.540919 2.076353 -1.232267 2.582654 5.802989 -9.975105 3.764927 -1.946642 -0.678988 60.850668 -65.784407 -9.090139 4.285264 -19.048361 9.394952 0.000000 0.000000 0.000000 5.910102 2.642311 0.356294 -3.429654 -8.379484 6.668777 6.883560 -1.519078 0.390282 11.054273 41.946835 59.019549 -1.482525 13.944214 -7.099314 0.000000 0.000000 0.000000 
2.788733 108.426773 2.928452 0.000000 0.000000 0.000000 -9.894357 12.670649 -3.099513 -37.875072 25.053409 15.128435 39.097782 4.930860 5.109549 5.903331 -16.225106 -1.967487 -5.812252 1.887334 0.268436 0.000000 0.000000 0.000000 -9.532069 14.356720 -3.326937 -18.442607 -23.321025 -2.376717 26.840277 5.828642 -1.452970 0.528170 5.267364 2.254539 0.605672 -3.291257 -16.645244 0.000000 0.000000 0.000000 -9.553601 16.617539 -4.653585 5.509694 0.057292 5.181972 5.441622 0.935798 0.318583 0.085048 -0.216291 -0.029837 0.000000 0.000000 0.000000 5.091127 4.179172 0.592923 19.068121 8.070875 -0.679170 8.596637 -50.981355 -5.470391 0.000000 0.000000 0.000000 4.540305 2.061905 -1.223597 2.571048 5.820846 -9.974384 3.780015 -1.952649 -0.655846 60.174561 -65.830442 -9.730732 4.265532 -18.897807 9.366390 0.000000 0.000000 0.000000 5.905615 2.628000 0.366624 -3.419966 -8.385082 6.602486 6.886783 -1.486841 0.420963 11.081440 42.031673 59.008852 -1.536585 13.913264 -7.098586 0.000000 0.000000 0.000000 
